<svg width="380" height="380" viewBox="0 0 380 380" fill="none" xmlns="http://www.w3.org/2000/svg">
<circle cx="190" cy="190" r="190" fill="#EF6351"/>
<mask id="mask0" mask-type="alpha" maskUnits="userSpaceOnUse" x="0" y="0" width="380" height="380">
<circle cx="190" cy="190" r="190" fill="#FC909F"/>
</mask>
<g mask="url(#mask0)">
<g clip-path="url(#clip0)">
<path d="M244 362.5C229.6 342.5 218.333 303.834 217 284.5L148.5 255L120 362.5H244Z" fill="#DE996C" stroke="black" stroke-width="4"/>
<mask id="mask1" mask-type="alpha" maskUnits="userSpaceOnUse" x="120" y="255" width="124" height="118">
<path d="M244 372.5C229.6 352.5 218.333 303.834 217 284.5L148.5 255L120 372.5H244Z" fill="#DE996C"/>
</mask>
<g mask="url(#mask1)">
<g style="mix-blend-mode:multiply">
<ellipse cx="214" cy="253" rx="59" ry="54" fill="black"/>
</g>
</g>
<mask id="path-6-inside-1" fill="white">
<path fill-rule="evenodd" clip-rule="evenodd" d="M273.886 193.917C273.859 193.801 273.831 193.685 273.803 193.569C273.776 193.454 273.748 193.338 273.719 193.222L257.323 124.786C257.306 124.718 257.29 124.65 257.274 124.582C257.258 124.514 257.242 124.446 257.225 124.379L257.152 124.075L257.151 124.076C246.933 82.6308 205.156 57.1472 163.582 67.1081C122.008 77.0689 96.3155 118.717 105.988 160.293L105.986 160.293L122.978 231.211L122.992 231.208C133.594 272.112 175.062 297.149 216.329 287.261C257.597 277.374 283.216 236.264 274.131 194.996L274.144 194.993L273.886 193.917Z"/>
</mask>
<path fill-rule="evenodd" clip-rule="evenodd" d="M273.886 193.917C273.859 193.801 273.831 193.685 273.803 193.569C273.776 193.454 273.748 193.338 273.719 193.222L257.323 124.786C257.306 124.718 257.29 124.65 257.274 124.582C257.258 124.514 257.242 124.446 257.225 124.379L257.152 124.075L257.151 124.076C246.933 82.6308 205.156 57.1472 163.582 67.1081C122.008 77.0689 96.3155 118.717 105.988 160.293L105.986 160.293L122.978 231.211L122.992 231.208C133.594 272.112 175.062 297.149 216.329 287.261C257.597 277.374 283.216 236.264 274.131 194.996L274.144 194.993L273.886 193.917Z" fill="#DE996C"/>
<path d="M273.886 193.917L269.992 194.831L269.994 194.84L269.996 194.849L273.886 193.917ZM273.719 193.222L269.83 194.154L269.832 194.163L269.834 194.172L273.719 193.222ZM257.323 124.786L253.43 125.708L253.433 125.718L257.323 124.786ZM257.225 124.379L253.335 125.311L253.338 125.321L257.225 124.379ZM257.152 124.075L261.042 123.143L260.111 119.255L256.222 120.185L257.152 124.075ZM257.151 124.076L253.267 125.033L254.218 128.89L258.081 127.966L257.151 124.076ZM163.582 67.1081L162.65 63.2182L163.582 67.1081ZM105.988 160.293L106.922 164.182L110.784 163.255L109.884 159.386L105.988 160.293ZM105.986 160.293L105.052 156.404L101.165 157.337L102.096 161.225L105.986 160.293ZM122.978 231.211L119.088 232.143L120.02 236.035L123.911 235.101L122.978 231.211ZM122.992 231.208L126.864 230.204L125.878 226.401L122.058 227.318L122.992 231.208ZM216.329 287.261L215.397 283.371H215.397L216.329 287.261ZM274.131 194.996L273.2 191.106L269.381 192.021L270.225 195.856L274.131 194.996ZM274.144 194.993L275.075 198.883L278.966 197.951L278.034 194.061L274.144 194.993ZM277.78 193.002C277.751 192.881 277.722 192.759 277.693 192.637L269.914 194.502C269.94 194.611 269.966 194.721 269.992 194.831L277.78 193.002ZM277.693 192.637C277.664 192.516 277.635 192.395 277.605 192.273L269.834 194.172C269.861 194.281 269.887 194.391 269.914 194.502L277.693 192.637ZM253.433 125.718L269.83 194.154L277.609 192.29L261.212 123.854L253.433 125.718ZM261.215 123.863C261.198 123.793 261.181 123.722 261.164 123.65L253.384 125.514C253.4 125.578 253.415 125.643 253.43 125.708L261.215 123.863ZM261.164 123.65C261.147 123.579 261.13 123.508 261.113 123.436L253.338 125.321C253.353 125.385 253.369 125.449 253.384 125.514L261.164 123.65ZM253.262 125.007L253.335 125.311L261.115 123.447L261.042 123.143L253.262 125.007ZM258.081 127.966L258.083 127.966L256.222 120.185L256.221 120.185L258.081 127.966ZM261.035 123.118C250.291 79.5398 206.364 52.7447 162.65 63.2182L164.514 70.998C203.949 61.5498 243.575 85.7219 253.267 125.033L261.035 123.118ZM162.65 63.2182C118.936 73.6917 91.9216 117.484 102.092 161.199L109.884 159.386C100.709 119.951 125.08 80.4461 164.514 70.998L162.65 63.2182ZM106.92 164.183L106.922 164.182L105.054 156.403L105.052 156.404L106.92 164.183ZM126.868 230.279L109.876 159.361L102.096 161.225L119.088 232.143L126.868 230.279ZM122.058 227.318L122.044 227.322L123.911 235.101L123.925 235.097L122.058 227.318ZM119.12 232.211C130.268 275.223 173.869 301.548 217.261 291.151L215.397 283.371C176.254 292.75 136.92 269.002 126.864 230.204L119.12 232.211ZM217.261 291.151C260.653 280.755 287.591 237.53 278.038 194.136L270.225 195.856C278.842 234.999 254.541 273.993 215.397 283.371L217.261 291.151ZM273.212 191.103L273.2 191.106L275.063 198.886L275.075 198.883L273.212 191.103ZM269.996 194.849L270.254 195.925L278.034 194.061L277.776 192.985L269.996 194.849Z" fill="black" mask="url(#path-6-inside-1)"/>
</g>
<path d="M243.92 216.331C243.75 214.263 241.636 213.112 239.845 213.818C235.616 215.484 221.627 220.783 211.763 222.14C200.94 223.629 184.55 221.821 179.806 221.232C177.877 220.992 176.157 222.65 176.49 224.665C177.142 228.608 178.484 232.409 180.459 235.891C182.661 239.775 185.606 243.188 189.127 245.933C192.648 248.679 196.676 250.704 200.979 251.893C205.283 253.083 209.779 253.413 214.21 252.864C218.641 252.316 222.921 250.901 226.805 248.698C230.689 246.496 234.101 243.55 236.847 240.029C239.593 236.508 241.618 232.481 242.807 228.178C243.873 224.321 244.248 220.311 243.92 216.331Z" fill="black" stroke="black" stroke-width="4"/>
<mask id="mask2" mask-type="alpha" maskUnits="userSpaceOnUse" x="178" y="215" width="65" height="37">
<path d="M241.793 215.193C242.309 219.363 241.999 223.594 240.879 227.645C239.76 231.695 237.854 235.486 235.27 238.8C232.686 242.113 229.474 244.886 225.818 246.958C222.163 249.031 218.135 250.364 213.964 250.88C209.794 251.396 205.563 251.085 201.512 249.966C197.462 248.846 193.671 246.94 190.357 244.356C187.043 241.772 184.271 238.56 182.198 234.905C180.126 231.249 178.793 227.221 178.277 223.051L241.793 215.193Z" fill="#171921"/>
</mask>
<g mask="url(#mask2)">
<circle cx="214.522" cy="255.315" r="21.5" transform="rotate(-7.05286 214.522 255.315)" fill="#EF6351"/>
</g>
<path d="M219 132.214C224.667 129.548 238 127.114 246 138.714" stroke="black" stroke-width="4" stroke-linecap="round"/>
<path d="M143.579 157.521C145.65 151.61 153.261 140.396 167.142 142.822" stroke="black" stroke-width="4" stroke-linecap="round"/>
<path d="M146.074 151.458L139.926 146.031" stroke="black" stroke-width="4" stroke-linecap="round"/>
<path d="M242.961 133.157L249.109 127.73" stroke="black" stroke-width="4" stroke-linecap="round"/>
<path d="M152.523 145.814L148.477 138.682" stroke="black" stroke-width="4" stroke-linecap="round"/>
<path d="M235.512 129.513L239.559 122.381" stroke="black" stroke-width="4" stroke-linecap="round"/>
<path d="M160.599 142.201L158.398 134.301" stroke="black" stroke-width="4" stroke-linecap="round"/>
<path d="M226.436 128.9L228.637 121" stroke="black" stroke-width="4" stroke-linecap="round"/>
<path d="M330.933 293.624C330.671 297.418 330.448 300.986 330.361 304.225C329.787 304.564 329.449 305.019 329.449 305.019L329.45 305.021L329.45 305.023L329.453 305.045L329.457 305.072L329.504 305.386L329.593 305.987L330.581 312.642C330.589 320.578 331.297 327.925 332.502 333.802C333.108 336.757 333.848 339.377 334.706 341.529C335.181 342.722 335.712 343.82 336.308 344.768C312.609 358.659 289.22 364.442 271.601 366.734C262.565 367.91 255.057 368.166 249.818 368.129C247.199 368.11 245.149 368.019 243.76 367.933C243.271 367.902 242.865 367.873 242.544 367.847C236.393 358.458 230.789 342.969 226.447 327.059C222.226 311.589 219.261 295.968 218.147 285.649C255.22 274.931 278.458 236.667 272.871 197.19C272.864 197.121 272.857 197.073 272.856 197.067L272.856 197.066C272.847 197.006 272.837 196.938 272.825 196.867C272.812 196.788 272.796 196.693 272.777 196.585C272.762 196.498 272.745 196.403 272.726 196.3C272.641 195.832 272.516 195.173 272.353 194.346C272.028 192.693 271.552 190.359 270.942 187.532C269.722 181.88 267.967 174.249 265.825 166.155C263.685 158.065 261.152 149.485 258.372 141.945C255.613 134.46 252.541 127.802 249.264 123.706L248.967 123.335L248.532 123.146C246.599 122.308 244.593 121.374 242.499 120.399C232.568 115.775 220.659 110.23 205.235 109.62C186.46 108.878 162.684 115.396 130.544 138.706L129.333 139.584L129.895 140.97C137.855 160.626 141.664 190.272 143.306 215.628C144.124 228.27 144.4 239.779 144.394 248.344C144.391 252.627 144.318 256.164 144.207 258.731C144.201 258.88 144.194 259.026 144.188 259.168C139.502 253.98 136.152 248.575 133.379 242.051C129.768 231.392 129.677 219.744 129.882 209.107C129.9 208.204 129.919 207.307 129.938 206.418C130.014 202.94 130.086 199.59 130.023 196.51C129.944 192.648 129.651 189.061 128.831 186.017C128.008 182.959 126.608 180.284 124.195 178.461C121.772 176.631 118.595 175.863 114.63 176.084L112.337 176.212L112.88 178.444L126.376 233.944L126.391 234.007L126.41 234.068C127.469 237.424 128.582 240.521 129.81 243.422C132.463 251.185 136.898 258.568 144.248 264.778C144.34 264.921 144.47 265.126 144.635 265.39C144.983 265.945 145.483 266.756 146.088 267.77C147.298 269.798 148.923 272.631 150.582 275.85C153.942 282.372 157.286 290.187 157.83 296.102C158.386 302.154 156.865 309.962 155.123 316.413C154.26 319.605 153.361 322.406 152.677 324.407C152.535 324.824 152.402 325.206 152.281 325.549C147.249 323.144 142.754 323.323 138.902 325.565C134.738 327.989 131.689 332.625 129.419 337.781C125.271 347.202 123.276 359.42 122.355 367.003C97.4846 361.298 78.281 355.507 65.2148 351.107C58.5012 348.846 53.408 346.953 49.9993 345.627C48.2949 344.964 47.0117 344.443 46.1575 344.089C45.9454 344.002 45.7597 343.924 45.6007 343.857C45.4477 343.466 45.2377 342.916 44.9827 342.219C44.4157 340.667 43.6267 338.384 42.7485 335.479C40.9915 329.668 38.8805 321.38 37.4734 311.502C34.6562 291.725 34.6769 265.696 45.8698 240.384C47.679 236.292 49.9399 232.089 52.3903 227.533C61.8582 209.931 74.155 187.07 74.155 145.084C74.155 114.707 93.7421 89.4723 119.037 74.3008C144.384 59.0979 174.881 54.3437 196.196 64.2327L197.029 64.6192L197.851 64.2103C222.135 52.1343 248.478 58.8746 269.71 74.2803C290.974 89.7089 306.668 113.533 309.607 134.762C311.124 145.721 311.606 155.338 312.055 164.285C312.268 168.554 312.475 172.671 312.782 176.708C313.728 189.132 315.633 200.553 321.806 212.384C330.945 229.901 332.676 250.018 332.324 268.301C332.174 276.096 331.649 283.505 331.172 290.222C331.09 291.377 331.01 292.511 330.933 293.624Z" fill="#171921" stroke="black" stroke-width="3.82184"/>
<ellipse cx="168.117" cy="167.927" rx="9" ry="10" transform="rotate(-6.77646 168.117 167.927)" fill="black"/>
<ellipse cx="232.149" cy="157.923" rx="9" ry="10" transform="rotate(-6.27568 232.149 157.923)" fill="black"/>
<path d="M200.277 178.926C205.497 176.94 214.601 177.54 214.04 187.639C213.542 196.615 204.333 198.397 201.4 196.304" stroke="black" stroke-width="4"/>
<path d="M124.5 180.176C122.17 179.408 119.655 179 117.08 179C106.587 179 98.0801 185.5 99.08 197.5C100.122 210 107.587 214.5 118.08 214.5C119.248 214.5 120.391 214.397 121.5 214.201C122.711 213.987 123.881 213.661 125 213.235" stroke="black" stroke-width="8"/>
<path d="M125.5 213.036C123.22 213.979 120.713 214.5 118.08 214.5C107.587 214.5 100.122 210 99.08 197.5C98.0801 185.5 106.587 179 117.08 179C120.217 179 123.267 179.606 126 180.73L125.5 213.036Z" fill="#DE996C"/>
<path d="M121.5 187.5C117.5 185.667 108.7 184.7 105.5 195.5" stroke="black" stroke-width="4"/>
<path d="M111 188C113.167 189.833 117.3 195.5 116.5 203.5" stroke="black" stroke-width="4"/>
<path d="M189.771 359.578C189.771 359.578 189.771 359.578 191 358L189.771 359.578L191.493 360.919L192.679 359.087L192.679 359.087L192.681 359.084L192.69 359.07L192.731 359.007C192.742 358.99 192.755 358.971 192.769 358.949C192.803 358.897 192.847 358.832 192.9 358.753C193.05 358.528 193.275 358.195 193.57 357.77C194.158 356.919 195.023 355.702 196.118 354.246C198.312 351.332 201.416 347.482 205.071 343.718C208.737 339.945 212.898 336.318 217.198 333.793C221.514 331.26 225.777 329.949 229.733 330.483C272.171 336.205 303.402 355.002 323.674 383.001H50.3745C66.6742 353.659 89.8579 334.983 127.445 326.413C129.046 326.047 131.224 326.158 133.947 326.791C136.642 327.418 139.715 328.519 143.028 329.976C149.655 332.889 157.052 337.136 164.004 341.536C170.945 345.93 177.39 350.443 182.104 353.86C184.459 355.567 186.379 357 187.709 358.004C188.374 358.506 188.891 358.901 189.241 359.169C189.416 359.304 189.55 359.407 189.639 359.475L189.739 359.553L189.764 359.572L189.77 359.577L189.771 359.578Z" fill="#FFEDEF" stroke="black" stroke-width="4"/>
<path d="M115.613 329.085L120.779 309.853C120.989 309.074 121.996 308.854 122.54 309.449C137.403 325.714 156.16 325.076 162.385 324.33C163.23 324.228 163.892 325.153 163.495 325.906L150.338 350.859C150.136 351.241 149.724 351.452 149.3 351.364C145.352 350.541 125.677 345.732 115.729 329.867C115.583 329.635 115.542 329.35 115.613 329.085Z" fill="#FFEDEF" stroke="black" stroke-width="4"/>
<path d="M246.195 328.981L234.615 309.499C234.222 308.837 233.253 308.848 232.834 309.494C227.097 318.33 217.202 322.4 213.742 323.602C213.12 323.819 212.835 324.558 213.171 325.125L226.673 347.94C226.875 348.281 227.255 348.465 227.636 348.357C229.771 347.749 237.096 344.685 246.182 330.021C246.378 329.706 246.385 329.3 246.195 328.981Z" fill="#FFEDEF" stroke="black" stroke-width="4"/>
<path d="M172.5 346.5L163.5 325L156.5 340L172.5 346.5Z" fill="black" stroke="black" stroke-width="4" stroke-linejoin="round"/>
<path d="M204 345.5L213 324L220 339L204 345.5Z" fill="black" stroke="black" stroke-width="4" stroke-linejoin="round"/>
<path d="M133.5 306L121.5 309L131.5 315.5L133.5 306Z" fill="black" stroke="black" stroke-width="4" stroke-linejoin="round"/>
<path d="M223 306L234 309L227 315.5L223 306Z" fill="black" stroke="black" stroke-width="4" stroke-linejoin="round"/>
</g>
<defs>
<clipPath id="clip0">
<rect width="200" height="320" fill="white" transform="translate(90 43)"/>
</clipPath>
</defs>
</svg>
